<svg width="16" height="20" viewBox="0 0 16 20" fill="none" xmlns="http://www.w3.org/2000/svg">
<path fill-rule="evenodd" clip-rule="evenodd" d="M10.25 0.5C10.25 0.433696 10.2237 0.370107 10.1768 0.323223C10.1299 0.276339 10.0663 0.25 10 0.25H3C2.27065 0.25 1.57118 0.539731 1.05546 1.05546C0.539731 1.57118 0.25 2.27065 0.25 3V17C0.25 17.7293 0.539731 18.4288 1.05546 18.9445C1.57118 19.4603 2.27065 19.75 3 19.75H13C13.7293 19.75 14.4288 19.4603 14.9445 18.9445C15.4603 18.4288 15.75 17.7293 15.75 17V7.147C15.75 7.0807 15.7237 7.01711 15.6768 6.97022C15.6299 6.92334 15.5663 6.897 15.5 6.897H11C10.8011 6.897 10.6103 6.81798 10.4697 6.67733C10.329 6.53668 10.25 6.34591 10.25 6.147V0.5ZM10.031 11.164C10.1864 11.0396 10.3849 10.9821 10.5827 11.004C10.7806 11.0259 10.9616 11.1256 11.086 11.281C11.2104 11.4364 11.2679 11.6349 11.246 11.8327C11.2241 12.0306 11.1244 12.2116 10.969 12.336L8.475 14.331C8.34157 14.4402 8.17445 14.5 8.002 14.5H7.994C7.82467 14.499 7.6607 14.4404 7.529 14.334L5.032 12.336C4.87658 12.2117 4.77689 12.0308 4.75486 11.8331C4.73282 11.6353 4.79025 11.4369 4.9145 11.2815C5.03875 11.1261 5.21966 11.0264 5.41741 11.0044C5.61517 10.9823 5.81358 11.0397 5.969 11.164L7.25 12.19V8.75C7.25 8.65151 7.2694 8.55398 7.30709 8.46299C7.34478 8.37199 7.40003 8.28931 7.46967 8.21967C7.53931 8.15003 7.62199 8.09478 7.71299 8.05709C7.80398 8.0194 7.90151 8 8 8C8.09849 8 8.19602 8.0194 8.28701 8.05709C8.37801 8.09478 8.46069 8.15003 8.53033 8.21967C8.59997 8.28931 8.65522 8.37199 8.69291 8.46299C8.7306 8.55398 8.75 8.65151 8.75 8.75V12.19L10.031 11.164Z" fill="white"/>
</svg>
