<svg width="20" height="20" viewBox="0 0 20 20" fill="none" xmlns="http://www.w3.org/2000/svg">
<path d="M2 20C1.45 20 0.979333 19.8043 0.588 19.413C0.196667 19.0217 0.000666667 18.5507 0 18V7C0 6.45 0.196 5.97933 0.588 5.588C0.98 5.19667 1.45067 5.00067 2 5H7V2C7 1.45 7.196 0.979333 7.588 0.588C7.98 0.196667 8.45067 0.000666667 9 0H11C11.55 0 12.021 0.196 12.413 0.588C12.805 0.98 13.0007 1.45067 13 2V5H18C18.55 5 19.021 5.196 19.413 5.588C19.805 5.98 20.0007 6.45067 20 7V18C20 18.55 19.8043 19.021 19.413 19.413C19.0217 19.805 18.5507 20.0007 18 20H2ZM4 16H10V15.55C10 15.2667 9.92067 15.004 9.762 14.762C9.60333 14.52 9.38267 14.3327 9.1 14.2C8.76667 14.05 8.42933 13.9377 8.088 13.863C7.74667 13.7883 7.384 13.7507 7 13.75C6.616 13.7493 6.25333 13.787 5.912 13.863C5.57067 13.939 5.23333 14.0513 4.9 14.2C4.61667 14.3333 4.39567 14.521 4.237 14.763C4.07833 15.005 3.99933 15.2673 4 15.55V16ZM12 14.5H16V13H12V14.5ZM7 13C7.41667 13 7.771 12.8543 8.063 12.563C8.355 12.2717 8.50067 11.9173 8.5 11.5C8.49933 11.0827 8.35367 10.7287 8.063 10.438C7.77233 10.1473 7.418 10.0013 7 10C6.582 9.99867 6.228 10.1447 5.938 10.438C5.648 10.7313 5.502 11.0853 5.5 11.5C5.498 11.9147 5.644 12.269 5.938 12.563C6.232 12.857 6.586 13.0027 7 13ZM12 11.5H16V10H12V11.5ZM9 7H11V2H9V7Z" fill="#FCFCFC"/>
</svg>
