<svg width="13" height="15" viewBox="0 0 13 15" fill="none" xmlns="http://www.w3.org/2000/svg">
<path fill-rule="evenodd" clip-rule="evenodd" d="M0 6.496C0.000795469 4.7727 0.685998 3.12028 1.90493 1.9021C3.12386 0.68392 4.7767 -0.00026527 6.5 7.7153e-08C10.089 7.7153e-08 13 2.909 13 6.496C13 9.17 11.662 11.289 10.228 12.721C9.5941 13.3577 8.88367 13.9132 8.113 14.375C7.791 14.565 7.49 14.715 7.228 14.817C6.981 14.915 6.722 14.991 6.5 14.991C6.278 14.991 6.019 14.915 5.772 14.817C5.46612 14.6925 5.17026 14.5448 4.887 14.375C4.11634 13.9132 3.40592 13.3576 2.772 12.721C1.338 11.289 0 9.17 0 6.496ZM6.5 3.997C5.83696 3.997 5.20107 4.26039 4.73223 4.72923C4.26339 5.19807 4 5.83396 4 6.497C4 7.16004 4.26339 7.79593 4.73223 8.26477C5.20107 8.73361 5.83696 8.997 6.5 8.997C7.16304 8.997 7.79893 8.73361 8.26777 8.26477C8.73661 7.79593 9 7.16004 9 6.497C9 5.83396 8.73661 5.19807 8.26777 4.72923C7.79893 4.26039 7.16304 3.997 6.5 3.997Z" fill="#FFFCFC"/>
</svg>
