<svg width="20" height="20" viewBox="0 0 20 20" fill="none" xmlns="http://www.w3.org/2000/svg">
<g clip-path="url(#clip0_14_361)">
<path d="M9.99999 10.6667C9.82318 10.6667 9.65361 10.7369 9.52859 10.8619C9.40357 10.987 9.33333 11.1565 9.33333 11.3333C9.33333 11.5101 9.40357 11.6797 9.52859 11.8047C9.65361 11.9298 9.82318 12 9.99999 12C10.1768 12 10.3464 11.9298 10.4714 11.8047C10.5964 11.6797 10.6667 11.5101 10.6667 11.3333C10.6667 11.1565 10.5964 10.987 10.4714 10.8619C10.3464 10.7369 10.1768 10.6667 9.99999 10.6667Z" fill="#FCFCFC"/>
<path fill-rule="evenodd" clip-rule="evenodd" d="M16 8.25467L10.6667 5.588V4H14.6667V0H9.33333V5.588L4 8.25467V10.6667H1.33333V18.6667H0V20H8V14.6667H12V20H20V18.6667H18.6667V10.6667H16V8.25467ZM17.3333 18.6667V12H16V18.6667H17.3333ZM4 18.6667H2.66667V12H4V18.6667ZM8 11.3333C8 10.8029 8.21071 10.2942 8.58579 9.91912C8.96086 9.54405 9.46957 9.33333 10 9.33333C10.5304 9.33333 11.0391 9.54405 11.4142 9.91912C11.7893 10.2942 12 10.8029 12 11.3333C12 11.8638 11.7893 12.3725 11.4142 12.7475C11.0391 13.1226 10.5304 13.3333 10 13.3333C9.46957 13.3333 8.96086 13.1226 8.58579 12.7475C8.21071 12.3725 8 11.8638 8 11.3333Z" fill="#FCFCFC"/>
<path d="M10.6667 20V16H9.33333V20H10.6667Z" fill="#FCFCFC"/>
</g>
<defs>
<clipPath id="clip0_14_361">
<rect width="20" height="20" fill="white"/>
</clipPath>
</defs>
</svg>
