<svg width="20" height="20" viewBox="0 0 20 20" fill="none" xmlns="http://www.w3.org/2000/svg">
<path d="M8.60587 0L7.37996 2.91766C7.13478 2.99121 6.91412 3.1138 6.69345 3.23639L3.77579 2.01049L2.01049 3.77579L3.23639 6.69345C3.1138 6.93863 3.01573 7.13478 2.91766 7.37996L0 8.60587V11.0577L2.91766 12.2836C3.01573 12.5288 3.1138 12.7249 3.23639 12.9701L2.01049 15.8878L3.77579 17.6531L6.69345 16.4272C6.91412 16.5252 7.13478 16.6478 7.37996 16.7459L8.60587 19.6636H11.0577L12.2836 16.7459C12.5043 16.6478 12.7494 16.5497 12.9701 16.4272L15.8878 17.6531L17.6531 15.8878L16.4272 12.9701C16.5252 12.7494 16.6478 12.5043 16.7459 12.2836L19.6636 11.0577V8.60587L16.7459 7.37996C16.6723 7.1593 16.5497 6.91412 16.4272 6.69345L17.6531 3.77579L15.8878 2.01049L12.9701 3.23639C12.7494 3.13832 12.5043 3.01573 12.2836 2.91766L11.0577 0L8.60587 0ZM9.83178 6.12954C11.8668 6.12954 13.5095 7.77225 13.5095 9.80726C13.5095 11.8423 11.8668 13.485 9.83178 13.485C7.79677 13.485 6.15405 11.8423 6.15405 9.80726C6.15405 7.77225 7.79677 6.12954 9.83178 6.12954Z" fill="white"/>
</svg>
